Coordinates
version=1
nRows=21
nColumns=38
inDegrees=no

Units are S.I. units (second, meters, Newtons, ...)
If the header above contains a line with 'inDegrees', this indicates whether rotational values are in degrees (yes) or radians (no).

endheader
time	pelvis_tilt	pelvis_list	pelvis_rotation	pelvis_tx	pelvis_ty	pelvis_tz	hip_flexion_r	hip_adduction_r	hip_rotation_r	knee_angle_r	ankle_angle_r	subtalar_angle_r	mtp_angle_r	hip_flexion_l	hip_adduction_l	hip_rotation_l	knee_angle_l	ankle_angle_l	subtalar_angle_l	mtp_angle_l	lumbar_extension	lumbar_bending	lumbar_rotation	arm_flex_r	arm_add_r	arm_rot_r	elbow_flex_r	pro_sup_r	wrist_flex_r	wrist_dev_r	arm_flex_l	arm_add_l	arm_rot_l	elbow_flex_l	pro_sup_l	wrist_flex_l	wrist_dev_l
1.36	-0.117696	0.0112343	-0.0475232	1.03016	1.05377	-0.346483	-0.0264661	0.0527305	0.173578	-0.699109	-0.231133	-0.000618317	1.62763e-06	0.457317	0.0382418	-0.126622	-0.311167	0.169535	0.0477166	-6.92876e-06	-0.138953	-0.0114615	0.193366	-0.303799	-0.298119	0.0639395	2.01725	2.01792	0.0533436	-0.0226169	-0.712201	-0.20855	-0.190209	2.11769	1.80764	0.0304626	0.0234192
1.37	-0.119054	0.0133536	-0.0447635	1.03059	1.04771	-0.347525	-0.0069856	0.0529301	0.179981	-0.763503	-0.216788	-0.000618317	1.62763e-06	0.462226	0.0440144	-0.122392	-0.335131	0.163357	0.0477166	-6.92876e-06	-0.134758	-0.0138051	0.18674	-0.318599	-0.295783	0.0551524	1.99378	2.01996	0.0533436	-0.0226169	-0.699862	-0.203842	-0.190117	2.11817	1.81015	0.0304626	0.0234192
1.38	-0.120459	0.0164485	-0.0417245	1.03078	1.04075	-0.348576	0.015113	0.0522543	0.184911	-0.831198	-0.198075	-0.000618317	1.62763e-06	0.470651	0.0507434	-0.119433	-0.372527	0.1599	0.0477166	-6.92876e-06	-0.130925	-0.0173357	0.178905	-0.332976	-0.292378	0.044333	1.96634	2.02245	0.0533436	-0.0226169	-0.685282	-0.199799	-0.189086	2.11605	1.81203	0.0304626	0.0234192
1.39	-0.121922	0.0203784	-0.0385546	1.03069	1.03308	-0.349611	0.0397573	0.050796	0.188452	-0.900971	-0.176167	-0.000618317	1.62763e-06	0.482319	0.0584851	-0.116911	-0.421604	0.161672	0.0477166	-6.92876e-06	-0.127573	-0.0219242	0.170177	-0.346528	-0.287865	0.0317132	1.9344	2.02559	0.0533436	-0.0226169	-0.667917	-0.196538	-0.186891	2.11031	1.8134	0.0304626	0.0234192
1.4	-0.12329	0.0248435	-0.0354831	1.03034	1.02504	-0.350586	0.0668355	0.0487941	0.190898	-0.971479	-0.15228	-0.000618317	1.62763e-06	0.496484	0.0670689	-0.114177	-0.479707	0.170683	0.0477166	-6.92876e-06	-0.124797	-0.0273317	0.160981	-0.358891	-0.282258	0.0175361	1.89745	2.02983	0.0533436	-0.0226169	-0.647207	-0.194139	-0.183253	2.09987	1.81453	0.0304626	0.0234192
1.41	-0.124512	0.0294875	-0.0328124	1.02974	1.01701	-0.351447	0.0961274	0.0466256	0.192715	-1.04132	-0.127494	-0.000618317	1.62763e-06	0.511866	0.0760885	-0.110956	-0.543383	0.187862	0.0477166	-6.92876e-06	-0.122737	-0.0332085	0.151809	-0.369783	-0.275649	0.00207209	1.8552	2.03593	0.0533436	-0.0226169	-0.622719	-0.19263	-0.17791	2.08382	1.81578	0.0304626	0.0234192
1.42	-0.125524	0.0339403	-0.0308929	1.02888	1.00925	-0.352153	0.127342	0.044751	0.194473	-1.10908	-0.102622	-0.000618317	1.62763e-06	0.526815	0.084973	-0.10735	-0.60867	0.212832	0.0477166	-6.92876e-06	-0.121499	-0.0391457	0.143138	-0.37904	-0.268247	-0.0143553	1.80774	2.04485	0.0533436	-0.0226169	-0.594298	-0.191962	-0.170718	2.06162	1.81759	0.0304626	0.0234192
1.43	-0.126288	0.0378573	-0.0300794	1.02774	1.00193	-0.352681	0.160145	0.0436245	0.196746	-1.17339	-0.0781894	-0.000618317	1.62763e-06	0.539572	0.0931097	-0.10371	-0.671562	0.24408	0.0477166	-6.92876e-06	-0.121121	-0.0447427	0.135326	-0.386648	-0.26041	-0.0313433	1.75574	2.05763	0.0533436	-0.0226169	-0.56221	-0.192002	-0.161752	2.03339	1.82036	0.0304626	0.0234192
1.44	-0.126926	0.0410349	-0.0306627	1.02633	0.995183	-0.353028	0.194172	0.0436113	0.199975	-1.23299	-0.0544798	-0.000618317	1.62763e-06	0.548526	0.0999538	-0.100459	-0.728512	0.279391	0.0477166	-6.92876e-06	-0.121593	-0.0496315	0.128522	-0.392765	-0.252657	-0.0483998	1.70056	2.07508	0.0533436	-0.0226169	-0.527225	-0.192525	-0.151375	2.00009	1.82431	0.0304626	0.0234192
1.45	-0.127497	0.0433489	-0.0327938	1.02469	0.989223	-0.353199	0.229111	0.0448967	0.204352	-1.28678	-0.0316341	-0.000618317	1.62763e-06	0.552505	0.105142	-0.0979505	-0.776778	0.316317	0.0477166	-6.92876e-06	-0.122753	-0.0535401	0.122589	-0.397737	-0.245634	-0.0649639	1.64423	2.09749	0.0533436	-0.0226169	-0.490633	-0.193245	-0.140244	1.96358	1.82927	0.0304626	0.0234192
1.46	-0.128063	0.0447626	-0.0364254	1.02291	0.984273	-0.35322	0.264664	0.0474577	0.209749	-1.33381	-0.00973913	-0.000618317	1.62763e-06	0.550837	0.108528	-0.0963761	-0.81458	0.352538	0.0477166	-6.92876e-06	-0.124337	-0.0562865	0.117112	-0.402108	-0.240047	-0.0804582	1.58933	2.12434	0.0533436	-0.0226169	-0.454133	-0.193856	-0.12923	1.92652	1.83454	0.0304626	0.0234192
1.47	-0.128702	0.0452983	-0.0413164	1.02108	0.980494	-0.353133	0.300505	0.0510891	0.215719	-1.3733	0.0111209	-0.000618317	1.62763e-06	0.543303	0.110171	-0.0957107	-0.841075	0.386077	0.0477166	-6.92876e-06	-0.126046	-0.0577493	0.111465	-0.4066	-0.23656	-0.0943699	1.53876	2.1542	0.0533436	-0.0226169	-0.419637	-0.194089	-0.119269	1.89208	1.83897	0.0304626	0.0234192
1.48	-0.12953	0.0449952	-0.0470692	1.01928	0.97796	-0.352988	0.336233	0.0554625	0.221572	-1.40465	0.0308594	-0.000618317	1.62763e-06	0.530032	0.110277	-0.0957107	-0.856215	0.415397	0.0477166	-6.92876e-06	-0.127607	-0.0578409	0.104973	-0.412056	-0.235687	-0.10635	1.4954	2.18496	0.0533436	-0.0226169	-0.388993	-0.19377	-0.111165	1.86348	1.84109	0.0304626	0.0234192
1.49	-0.130609	0.0438754	-0.0532081	1.0176	0.976684	-0.352833	0.371355	0.0601939	0.226495	-1.42742	0.0494049	-0.000618317	1.62763e-06	0.511381	0.109128	-0.0959621	-0.860552	0.439386	0.0477166	-6.92876e-06	-0.128809	-0.056495	0.0970749	-0.41934	-0.237701	-0.116271	1.46171	2.21414	0.0533436	-0.0226169	-0.363703	-0.192856	-0.10541	1.84353	1.83951	0.0304626	0.0234192
1.5	-0.131938	0.0419269	-0.0592714	1.01611	0.976646	-0.352703	0.405287	0.0648995	0.229673	-1.44132	0.0667189	-0.000618317	1.62763e-06	0.487831	0.107021	-0.0959831	-0.855039	0.457254	0.0477166	-6.92876e-06	-0.129539	-0.0536752	0.0874542	-0.429212	-0.242586	-0.124246	1.4394	2.23932	0.0533436	-0.0226169	-0.344711	-0.19144	-0.102086	1.83418	1.83329	0.0304626	0.0234192
1.51	-0.133465	0.0391394	-0.0648877	1.01488	0.977793	-0.352619	0.437392	0.0692477	0.230383	-1.4462	0.0827997	-0.000618317	1.62763e-06	0.459933	0.10421	-0.0953533	-0.840871	0.468394	0.0477166	-6.92876e-06	-0.12977	-0.0493748	0.0761017	-0.442214	-0.25003	-0.130591	1.42918	2.25844	0.0533436	-0.0226169	-0.332291	-0.189726	-0.100856	1.83623	1.82219	0.0304626	0.0234192
1.52	-0.135084	0.0355287	-0.0698145	1.01394	0.980058	-0.352586	0.467066	0.0730011	0.228081	-1.44206	0.097671	-0.000618317	1.62763e-06	0.428315	0.100853	-0.0938444	-0.819368	0.472276	0.0477166	-6.92876e-06	-0.129516	-0.0436252	0.0633189	-0.458592	-0.259453	-0.135778	1.43067	2.27002	0.0533436	-0.0226169	-0.326083	-0.18799	-0.101078	1.84931	1.80688	0.0304626	0.0234192
1.53	-0.136703	0.031122	-0.0739583	1.01332	0.983357	-0.352592	0.493798	0.0760447	0.22245	-1.42899	0.111365	-0.000618317	1.62763e-06	0.393683	0.0970003	-0.0915113	-0.791887	0.468411	0.0477166	-6.92876e-06	-0.128803	-0.036515	0.0496548	-0.478271	-0.270074	-0.140383	1.44255	2.27334	0.0533436	-0.0226169	-0.325225	-0.186532	-0.101974	1.87206	1.78881	0.0304626	0.0234192
1.54	-0.138279	0.0259618	-0.0773665	1.01303	0.987588	-0.352615	0.517208	0.0784052	0.213435	-1.40713	0.123904	-0.000618317	1.62763e-06	0.356818	0.0925967	-0.0887141	-0.759775	0.456399	0.0477166	-6.92876e-06	-0.127645	-0.0281911	0.0358036	-0.50089	-0.280998	-0.145029	1.46281	2.26837	0.0533436	-0.0226169	-0.328567	-0.185626	-0.102805	1.90242	1.77004	0.0304626	0.0234192
1.55	-0.139823	0.0201075	-0.0801964	1.01306	0.992637	-0.352623	0.53704	0.080251	0.20126	-1.3767	0.135294	-0.000618317	1.62763e-06	0.318552	0.0875101	-0.0860647	-0.724334	0.436016	0.0477166	-6.92876e-06	-0.126053	-0.0188523	0.0224903	-0.525863	-0.291319	-0.150321	1.48911	2.25575	0.0533436	-0.0226169	-0.334879	-0.185483	-0.102987	1.93806	1.75276	0.0304626	0.0234192
1.56	-0.141377	0.0136419	-0.0826708	1.01338	0.998376	-0.352585	0.553139	0.0818732	0.186434	-1.33793	0.145518	-0.000618317	1.62763e-06	0.279721	0.0815885	-0.0843098	-0.686798	0.407301	0.0477166	-6.92876e-06	-0.124029	-0.00873857	0.0103692	-0.552471	-0.300224	-0.156767	1.51915	2.23666	0.0533436	-0.0226169	-0.343027	-0.18623	-0.102146	1.97664	1.73882	0.0304626	0.0234192
